# xmcd
#
# Track frame offsets:
#	150
#	10290
#	22710
#	32838
#	41887
#	51831
#	61210
#	73743
#	84329
#	96645
#	107390
#	119422
#	129519
#	140743
#	153942
#	167026
#	176902
#	188993
#	200216
#	209822
#	219210
#	230966
#	241880
#	253502
#
# Disc length: 3508 seconds
#
# Revision: 1
# Processed by: cddbd v1.5.2PL0 Copyright (c) Steve Scherf et al.
# Submitted via: audiograbber 1.83.01
#
DISCID=660db218
DTITLE=V-A - The Memphis Jukebox (Vol. 3)
DYEAR=2010
DGENRE=Blues
TTITLE0=Brook Benton - Hurtin' Inside
TTITLE1=Buddy Johnson - I Don't Want Nobody
TTITLE2=Vikki Nelson - Bright And Early
TTITLE3=Piano Red - She Knocks Me Out
TTITLE4=Fats Domino - I Can't Go On
TTITLE5=Big Joe Turner - Rock A While
TTITLE6=Red Prysock - Short Circuit
TTITLE7=Ray Sharpe - Monkey's Uncle
TTITLE8=Chuck Berry - Little Queenie
TTITLE9=John Lee Hooker - Dusty Road
TTITLE10=Arthur "Big Boy" Crudup - Mean Old Frisco Blues
TTITLE11=The Jivers - Little Mama
TTITLE12=The El Dorados - I'll Be Forever Loving You
TTITLE13=Eugene Church - Pretty Girls Everywhere
TTITLE14=James Brown - Think
TTITLE15=Otis Williams - That's Your Mistake
TTITLE16=The Spiders - Is It True
TTITLE17=The Diamonds - The Stroll
TTITLE18=Billy Lee Riley - Flying Saucers Rock 'n' Roll
TTITLE19=Warren Smith - Ubangi Stomp
TTITLE20=Cleveland Crochet - Sugar Bee
TTITLE21=Charlie Rich - Gonna Be Waitin'
TTITLE22=Jerry Lee Lewis - Breathless (Sun 288 taken from Elvis Presley's perso
TTITLE22=nal jukebox copy)
TTITLE23=Jerry Lee Lewis - Down The Line (Sun 288 taken from Elvis Presley's pe
TTITLE23=rsonal jukebox copy)
EXTD=
EXTT0=
EXTT1=
EXTT2=
EXTT3=
EXTT4=
EXTT5=
EXTT6=
EXTT7=
EXTT8=
EXTT9=
EXTT10=
EXTT11=
EXTT12=
EXTT13=
EXTT14=
EXTT15=
EXTT16=
EXTT17=
EXTT18=
EXTT19=
EXTT20=
EXTT21=
EXTT22=
EXTT23=
PLAYORDER=
